<?xml version="1.0" encoding="UTF-8"?>
<!DOCTYPE svg PUBLIC "-//W3C//DTD SVG 1.1//EN" "http://www.w3.org/Graphics/SVG/1.1/DTD/svg11.dtd">
<svg xmlns="http://www.w3.org/2000/svg" version="1.1" width="128px" height="128px" style="shape-rendering:geometricPrecision; text-rendering:geometricPrecision; image-rendering:optimizeQuality; fill-rule:evenodd; clip-rule:evenodd" xmlns:xlink="http://www.w3.org/1999/xlink">
<g><path style="opacity:0.997" fill="#00a7fe" d="M 17.5,-0.5 C 48.1667,-0.5 78.8333,-0.5 109.5,-0.5C 112.677,1.61122 116.01,2.77788 119.5,3C 120.833,3.66667 120.833,4.33333 119.5,5C 123.109,5.78475 125.442,8.28475 126.5,12.5C 125.167,13.1667 125.167,13.8333 126.5,14.5C 126.328,15.4916 126.662,16.1583 127.5,16.5C 127.5,18.1667 127.5,19.8333 127.5,21.5C 126.778,21.9175 126.278,22.5842 126,23.5C 125.667,22.8333 125.333,22.1667 125,21.5C 113.182,22.5014 101.515,22.5014 90,21.5C 87.5059,23.901 85.1726,23.901 83,21.5C 79.3842,22.2377 75.7175,22.9044 72,23.5C 68.2825,22.9044 64.6158,22.2377 61,21.5C 41.5297,22.8285 22.0297,22.8285 2.5,21.5C 1.80762,22.0253 1.30762,22.6919 1,23.5C 0.721579,22.5842 0.221579,21.9175 -0.5,21.5C -0.5,19.8333 -0.5,18.1667 -0.5,16.5C 0.390917,15.7387 1.05758,14.7387 1.5,13.5C 1.17461,10.454 2.34128,7.78733 5,5.5C 5.9138,6.65367 6.74714,6.48701 7.5,5C 6.16667,4.33333 6.16667,3.66667 7.5,3C 10.9901,2.77788 14.3235,1.61122 17.5,-0.5 Z"/></g>
<g><path style="opacity:0.012" fill="#00a9ff" d="M 126.5,12.5 C 126.833,12.5 127.167,12.5 127.5,12.5C 127.5,13.1667 127.5,13.8333 127.5,14.5C 127.167,14.5 126.833,14.5 126.5,14.5C 126.5,13.8333 126.5,13.1667 126.5,12.5 Z"/></g>
<g><path style="opacity:1" fill="#019dfb" d="M -0.5,21.5 C 0.221579,21.9175 0.721579,22.5842 1,23.5C 1.30762,22.6919 1.80762,22.0253 2.5,21.5C 22.0297,22.8285 41.5297,22.8285 61,21.5C 64.6158,22.2377 68.2825,22.9044 72,23.5C 75.7175,22.9044 79.3842,22.2377 83,21.5C 85.1726,23.901 87.5059,23.901 90,21.5C 101.515,22.5014 113.182,22.5014 125,21.5C 125.333,22.1667 125.667,22.8333 126,23.5C 126.278,22.5842 126.778,21.9175 127.5,21.5C 127.5,27.8333 127.5,34.1667 127.5,40.5C 116.252,40.1793 105.085,40.5126 94,41.5C 93.8267,35.9842 93.3267,30.6509 92.5,25.5C 84.1088,24.1192 75.7755,24.2859 67.5,26C 61.5887,29.0762 57.2554,33.5762 54.5,39.5C 43.6663,40.1559 32.8329,40.8226 22,41.5C 17.559,39.2968 13.2257,39.2968 9,41.5C 5.94325,40.5495 2.77659,40.2161 -0.5,40.5C -0.5,34.1667 -0.5,27.8333 -0.5,21.5 Z"/></g>
<g><path style="opacity:1" fill="#fafcfe" d="M 92.5,25.5 C 92.5,30.8333 92.5,36.1667 92.5,41.5C 75.6576,39.3564 69.3242,46.6898 73.5,63.5C 79.5,63.5 85.5,63.5 91.5,63.5C 90.501,69.4917 89.501,75.4917 88.5,81.5C 83.5,81.5 78.5,81.5 73.5,81.5C 73.5,96.8333 73.5,112.167 73.5,127.5C 66.8333,127.5 60.1667,127.5 53.5,127.5C 53.5,112.5 53.5,97.5 53.5,82.5C 48.3595,81.5119 43.0262,81.1786 37.5,81.5C 37.5,75.5 37.5,69.5 37.5,63.5C 42.8333,63.5 48.1667,63.5 53.5,63.5C 53.264,55.4583 53.5973,47.4583 54.5,39.5C 57.2554,33.5762 61.5887,29.0762 67.5,26C 75.7755,24.2859 84.1088,24.1192 92.5,25.5 Z"/></g>
<g><path style="opacity:1" fill="#078df6" d="M 54.5,39.5 C 53.5973,47.4583 53.264,55.4583 53.5,63.5C 48.1667,63.5 42.8333,63.5 37.5,63.5C 37.5,69.5 37.5,75.5 37.5,81.5C 43.0262,81.1786 48.3595,81.5119 53.5,82.5C 48.1667,82.5 42.8333,82.5 37.5,82.5C 36.8162,76.0991 36.1495,69.5991 35.5,63C 27.7749,61.9271 20.2749,61.4271 13,61.5C 12.6667,62.1667 12.3333,62.8333 12,63.5C 7.72846,62.2031 3.5618,61.5364 -0.5,61.5C -0.5,54.5 -0.5,47.5 -0.5,40.5C 2.77659,40.2161 5.94325,40.5495 9,41.5C 13.2257,39.2968 17.559,39.2968 22,41.5C 32.8329,40.8226 43.6663,40.1559 54.5,39.5 Z"/></g>
<g><path style="opacity:1" fill="#038ef6" d="M 92.5,25.5 C 93.3267,30.6509 93.8267,35.9842 94,41.5C 105.085,40.5126 116.252,40.1793 127.5,40.5C 127.5,46.5 127.5,52.5 127.5,58.5C 116.95,57.5572 105.784,57.5572 94,58.5C 91.923,57.9828 89.923,57.3161 88,56.5C 83.8845,58.0872 79.8845,58.7538 76,58.5C 75.6667,56.5 75.3333,54.5 75,52.5C 74.5017,55.8168 74.335,59.1501 74.5,62.5C 80.358,62.1778 86.0247,62.5111 91.5,63.5C 85.5,63.5 79.5,63.5 73.5,63.5C 69.3242,46.6898 75.6576,39.3564 92.5,41.5C 92.5,36.1667 92.5,30.8333 92.5,25.5 Z"/></g>
<g><path style="opacity:1" fill="#007bef" d="M -0.5,61.5 C 3.5618,61.5364 7.72846,62.2031 12,63.5C 12.3333,62.8333 12.6667,62.1667 13,61.5C 20.2749,61.4271 27.7749,61.9271 35.5,63C 36.1495,69.5991 36.8162,76.0991 37.5,82.5C 42.7486,82.8587 47.7486,83.8587 52.5,85.5C 43.1964,84.8335 33.8631,84.1668 24.5,83.5C 19.5196,84.4318 14.6862,84.7652 10,84.5C 9.66667,83.8333 9.33333,83.1667 9,82.5C 5.83593,85.1119 2.66926,85.1119 -0.5,82.5C -0.5,75.5 -0.5,68.5 -0.5,61.5 Z"/></g>
<g><path style="opacity:1" fill="#117cee" d="M 127.5,58.5 C 127.5,67.8333 127.5,77.1667 127.5,86.5C 110.167,86.5 92.8333,86.5 75.5,86.5C 75.5,85.5 75.5,84.5 75.5,83.5C 79.8461,83.6657 84.1794,83.499 88.5,83C 83.8452,82.5008 79.1785,82.3342 74.5,82.5C 74.5,97.5 74.5,112.5 74.5,127.5C 74.1667,127.5 73.8333,127.5 73.5,127.5C 73.5,112.167 73.5,96.8333 73.5,81.5C 78.5,81.5 83.5,81.5 88.5,81.5C 89.501,75.4917 90.501,69.4917 91.5,63.5C 86.0247,62.5111 80.358,62.1778 74.5,62.5C 74.335,59.1501 74.5017,55.8168 75,52.5C 75.3333,54.5 75.6667,56.5 76,58.5C 79.8845,58.7538 83.8845,58.0872 88,56.5C 89.923,57.3161 91.923,57.9828 94,58.5C 105.784,57.5572 116.95,57.5572 127.5,58.5 Z"/></g>
<g><path style="opacity:1" fill="#006fea" d="M -0.5,82.5 C 2.66926,85.1119 5.83593,85.1119 9,82.5C 9.33333,83.1667 9.66667,83.8333 10,84.5C 14.6862,84.7652 19.5196,84.4318 24.5,83.5C 33.8631,84.1668 43.1964,84.8335 52.5,85.5C 53.1335,93.3867 52.8001,97.72 51.5,98.5C 34.6468,99.5409 17.3134,99.5409 -0.5,98.5C -0.5,93.1667 -0.5,87.8333 -0.5,82.5 Z"/></g>
<g><path style="opacity:1" fill="#0167e8" d="M 127.5,86.5 C 127.5,94.5 127.5,102.5 127.5,110.5C 126.662,110.842 126.328,111.508 126.5,112.5C 125.167,113.167 125.167,113.833 126.5,114.5C 125.567,117.37 123.9,119.704 121.5,121.5C 121.167,120.167 120.833,120.167 120.5,121.5C 119.167,121.833 119.167,122.167 120.5,122.5C 120.027,123.906 119.027,124.573 117.5,124.5C 117.167,123.167 116.833,123.167 116.5,124.5C 115.508,124.328 114.842,124.662 114.5,125.5C 113.508,125.328 112.842,125.662 112.5,126.5C 111.508,126.328 110.842,126.662 110.5,127.5C 98.5,127.5 86.5,127.5 74.5,127.5C 74.5,112.5 74.5,97.5 74.5,82.5C 79.1785,82.3342 83.8452,82.5008 88.5,83C 84.1794,83.499 79.8461,83.6657 75.5,83.5C 75.5,84.5 75.5,85.5 75.5,86.5C 92.8333,86.5 110.167,86.5 127.5,86.5 Z"/></g>
<g><path style="opacity:0.999" fill="#0262e6" d="M 37.5,82.5 C 42.8333,82.5 48.1667,82.5 53.5,82.5C 53.5,97.5 53.5,112.5 53.5,127.5C 41.1667,127.5 28.8333,127.5 16.5,127.5C 16.1583,126.662 15.4916,126.328 14.5,126.5C 12.4275,124.443 10.0941,123.609 7.5,124C 6.16667,123.333 6.16667,122.667 7.5,122C 5.86191,121.758 4.36191,120.925 3,119.5C 1.28704,116.533 0.120378,113.533 -0.5,110.5C -0.5,106.5 -0.5,102.5 -0.5,98.5C 17.3134,99.5409 34.6468,99.5409 51.5,98.5C 52.8001,97.72 53.1335,93.3867 52.5,85.5C 47.7486,83.8587 42.7486,82.8587 37.5,82.5 Z"/></g>
<g><path style="opacity:0.012" fill="#0054ff" d="M 126.5,112.5 C 126.833,112.5 127.167,112.5 127.5,112.5C 127.5,113.167 127.5,113.833 127.5,114.5C 127.167,114.5 126.833,114.5 126.5,114.5C 126.5,113.833 126.5,113.167 126.5,112.5 Z"/></g>
<g><path style="opacity:0.008" fill="#007eff" d="M 120.5,121.5 C 120.833,121.5 121.167,121.5 121.5,121.5C 121.315,122.17 120.981,122.17 120.5,121.5 Z"/></g>
<g><path style="opacity:0.012" fill="#0054ff" d="M 116.5,124.5 C 116.833,124.5 117.167,124.5 117.5,124.5C 117.315,125.17 116.981,125.17 116.5,124.5 Z"/></g>
<g><path style="opacity:0.008" fill="#15718d" d="M 114.5,126.5 C 114.5,126.167 114.5,125.833 114.5,125.5C 115.167,125.5 115.833,125.5 116.5,125.5C 116.158,126.338 115.492,126.672 114.5,126.5 Z"/></g>
<g><path style="opacity:0.008" fill="#0070e1" d="M 12.5,127.5 C 12.8417,126.662 13.5084,126.328 14.5,126.5C 14.5,126.833 14.5,127.167 14.5,127.5C 13.8333,127.5 13.1667,127.5 12.5,127.5 Z"/></g>
<g><path style="opacity:0.012" fill="#0062c5" d="M 112.5,127.5 C 112.5,127.167 112.5,126.833 112.5,126.5C 113.167,126.5 113.833,126.5 114.5,126.5C 114.5,126.833 114.5,127.167 114.5,127.5C 113.833,127.5 113.167,127.5 112.5,127.5 Z"/></g>
</svg>
